<?xml version="1.0" standalone="no"?>
<!DOCTYPE svg PUBLIC "-//W3C//DTD SVG 20010904//EN"
 "http://www.w3.org/TR/2001/REC-SVG-20010904/DTD/svg10.dtd">
<svg version="1.0" xmlns="http://www.w3.org/2000/svg"
 width="256.000000pt" height="256.000000pt" viewBox="0 0 256.000000 256.000000"
 preserveAspectRatio="xMidYMid meet">

<g transform="translate(0.000000,256.000000) scale(0.100000,-0.100000)"
fill="#000000" stroke="none">
<path d="M1155 2553 c-127 -11 -328 -69 -447 -129 -236 -118 -456 -340 -576
-579 -198 -396 -166 -892 81 -1267 440 -668 1378 -772 1953 -215 190 182 312
405 370 672 27 124 24 379 -5 510 -59 259 -179 474 -368 656 -268 258 -632
385 -1008 352z m-225 -789 c25 -8 64 -27 88 -43 38 -25 48 -27 80 -20 72 17
236 22 323 10 l85 -13 65 35 c58 32 148 57 204 57 43 0 71 -106 55 -206 -10
-59 -9 -65 14 -99 56 -82 70 -140 70 -280 0 -99 -5 -142 -18 -179 -57 -158
-164 -224 -403 -247 -142 -14 -429 -6 -526 16 -184 39 -273 122 -312 287 -35
150 -9 298 71 405 23 30 24 36 13 78 -14 57 -7 151 16 194 17 33 17 33 73 27
31 -4 77 -14 102 -22z"/>
<path d="M966 1299 c-57 -13 -95 -46 -122 -103 -52 -111 -19 -248 73 -306 76
-49 133 -61 303 -67 176 -6 309 7 383 39 149 65 193 266 83 386 -51 57 -108
65 -291 41 -91 -11 -241 -5 -370 15 -11 2 -37 0 -59 -5z m115 -79 c42 -23 67
-115 49 -181 -13 -49 -59 -99 -90 -99 -37 0 -87 60 -95 114 -18 118 56 208
136 166z m490 0 c52 -28 71 -155 33 -220 -11 -19 -32 -42 -47 -50 -24 -13 -30
-13 -54 0 -61 35 -88 119 -63 196 24 74 76 103 131 74z"/>
</g>
</svg>
