<?xml version="1.0" encoding="utf-8"?><svg xmlns="http://www.w3.org/2000/svg" xmlns:xlink="http://www.w3.org/1999/xlink" width="800px" height="800px" viewBox="0 0 100 100" preserveAspectRatio="xMidYMid" style="margin-right:-2px;display:block;background-repeat-y:initial;background-repeat-x:initial;animation-play-state:paused" ><g transform="rotate(0 50 50)" style="transform:matrix(1, 0, 0, 1, 0, 0);animation-play-state:paused" ><rect x="47" y="29" rx="3" ry="1" width="6" height="2" fill="#ffffff" opacity="0.00999999" style="opacity:0.00999999;animation-play-state:paused" ></rect></g>
<g transform="rotate(3.6 50 50)" style="transform:matrix(0.998027, 0.0627905, -0.0627905, 0.998027, 3.23819, -3.04086);animation-play-state:paused" ><rect x="47" y="29" rx="3" ry="1" width="6" height="2" fill="#ffffff" opacity="0.02" style="opacity:0.02;animation-play-state:paused" ></rect></g>
<g transform="rotate(7.2 50 50)" style="transform:matrix(0.992115, 0.125333, -0.125333, 0.992115, 6.66093, -5.8724);animation-play-state:paused" ><rect x="47" y="29" rx="3" ry="1" width="6" height="2" fill="#ffffff" opacity="0.03" style="opacity:0.03;animation-play-state:paused" ></rect></g>
<g transform="rotate(10.8 50 50)" style="transform:matrix(0.982287, 0.187381, -0.187381, 0.982287, 10.2547, -8.48343);animation-play-state:paused" ><rect x="47" y="29" rx="3" ry="1" width="6" height="2" fill="#ffffff" opacity="0.04" style="opacity:0.04;animation-play-state:paused" ></rect></g>
<g transform="rotate(14.4 50 50)" style="transform:matrix(0.968583, 0.24869, -0.24869, 0.968583, 14.0053, -10.8637);animation-play-state:paused" ><rect x="47" y="29" rx="3" ry="1" width="6" height="2" fill="#ffffff" opacity="0.05" style="opacity:0.05;animation-play-state:paused" ></rect></g>
<g transform="rotate(18 50 50)" style="transform:matrix(0.951057, 0.309017, -0.309017, 0.951057, 17.898, -13.0037);animation-play-state:paused" ><rect x="47" y="29" rx="3" ry="1" width="6" height="2" fill="#ffffff" opacity="0.06" style="opacity:0.06;animation-play-state:paused" ></rect></g>
<g transform="rotate(21.6 50 50)" style="transform:matrix(0.929776, 0.368125, -0.368125, 0.929776, 21.9174, -14.8951);animation-play-state:paused" ><rect x="47" y="29" rx="3" ry="1" width="6" height="2" fill="#ffffff" opacity="0.07" style="opacity:0.07;animation-play-state:paused" ></rect></g>
<g transform="rotate(25.2 50 50)" style="transform:matrix(0.904827, 0.425779, -0.425779, 0.904827, 26.0476, -16.5303);animation-play-state:paused" ><rect x="47" y="29" rx="3" ry="1" width="6" height="2" fill="#ffffff" opacity="0.08" style="opacity:0.08;animation-play-state:paused" ></rect></g>
<g transform="rotate(28.8 50 50)" style="transform:matrix(0.876307, 0.481754, -0.481754, 0.876307, 30.2723, -17.903);animation-play-state:paused" ><rect x="47" y="29" rx="3" ry="1" width="6" height="2" fill="#ffffff" opacity="0.09" style="opacity:0.09;animation-play-state:paused" ></rect></g>
<g transform="rotate(32.4 50 50)" style="transform:matrix(0.844328, 0.535827, -0.535827, 0.844328, 34.5749, -19.0077);animation-play-state:paused" ><rect x="47" y="29" rx="3" ry="1" width="6" height="2" fill="#ffffff" opacity="0.1" style="opacity:0.1;animation-play-state:paused" ></rect></g>
<g transform="rotate(36 50 50)" style="transform:matrix(0.809017, 0.587785, -0.587785, 0.809017, 38.9384, -19.8401);animation-play-state:paused" ><rect x="47" y="29" rx="3" ry="1" width="6" height="2" fill="#ffffff" opacity="0.11" style="opacity:0.11;animation-play-state:paused" ></rect></g>
<g transform="rotate(39.6 50 50)" style="transform:matrix(0.770513, 0.637424, -0.637424, 0.770513, 43.3455, -20.3969);animation-play-state:paused" ><rect x="47" y="29" rx="3" ry="1" width="6" height="2" fill="#ffffff" opacity="0.12" style="opacity:0.12;animation-play-state:paused" ></rect></g>
<g transform="rotate(43.2 50 50)" style="transform:matrix(0.728969, 0.684547, -0.684547, 0.728969, 47.7789, -20.6758);animation-play-state:paused" ><rect x="47" y="29" rx="3" ry="1" width="6" height="2" fill="#ffffff" opacity="0.13" style="opacity:0.13;animation-play-state:paused" ></rect></g>
<g transform="rotate(46.8 50 50)" style="transform:matrix(0.684547, 0.728969, -0.728969, 0.684547, 52.2211, -20.6758);animation-play-state:paused" ><rect x="47" y="29" rx="3" ry="1" width="6" height="2" fill="#ffffff" opacity="0.14" style="opacity:0.14;animation-play-state:paused" ></rect></g>
<g transform="rotate(50.4 50 50)" style="transform:matrix(0.637424, 0.770513, -0.770513, 0.637424, 56.6545, -20.3969);animation-play-state:paused" ><rect x="47" y="29" rx="3" ry="1" width="6" height="2" fill="#ffffff" opacity="0.15" style="opacity:0.15;animation-play-state:paused" ></rect></g>
<g transform="rotate(54 50 50)" style="transform:matrix(0.587785, 0.809017, -0.809017, 0.587785, 61.0616, -19.8401);animation-play-state:paused" ><rect x="47" y="29" rx="3" ry="1" width="6" height="2" fill="#ffffff" opacity="0.16" style="opacity:0.16;animation-play-state:paused" ></rect></g>
<g transform="rotate(57.6 50 50)" style="transform:matrix(0.535827, 0.844328, -0.844328, 0.535827, 65.4251, -19.0077);animation-play-state:paused" ><rect x="47" y="29" rx="3" ry="1" width="6" height="2" fill="#ffffff" opacity="0.17" style="opacity:0.17;animation-play-state:paused" ></rect></g>
<g transform="rotate(61.2 50 50)" style="transform:matrix(0.481754, 0.876307, -0.876307, 0.481754, 69.7277, -17.903);animation-play-state:paused" ><rect x="47" y="29" rx="3" ry="1" width="6" height="2" fill="#ffffff" opacity="0.18" style="opacity:0.18;animation-play-state:paused" ></rect></g>
<g transform="rotate(64.8 50 50)" style="transform:matrix(0.425779, 0.904827, -0.904827, 0.425779, 73.9524, -16.5303);animation-play-state:paused" ><rect x="47" y="29" rx="3" ry="1" width="6" height="2" fill="#ffffff" opacity="0.19" style="opacity:0.19;animation-play-state:paused" ></rect></g>
<g transform="rotate(68.4 50 50)" style="transform:matrix(0.368125, 0.929776, -0.929776, 0.368125, 78.0826, -14.8951);animation-play-state:paused" ><rect x="47" y="29" rx="3" ry="1" width="6" height="2" fill="#ffffff" opacity="0.2" style="opacity:0.2;animation-play-state:paused" ></rect></g>
<g transform="rotate(72 50 50)" style="transform:matrix(0.309017, 0.951057, -0.951057, 0.309017, 82.102, -13.0037);animation-play-state:paused" ><rect x="47" y="29" rx="3" ry="1" width="6" height="2" fill="#ffffff" opacity="0.21" style="opacity:0.21;animation-play-state:paused" ></rect></g>
<g transform="rotate(75.6 50 50)" style="transform:matrix(0.24869, 0.968583, -0.968583, 0.24869, 85.9947, -10.8637);animation-play-state:paused" ><rect x="47" y="29" rx="3" ry="1" width="6" height="2" fill="#ffffff" opacity="0.22" style="opacity:0.22;animation-play-state:paused" ></rect></g>
<g transform="rotate(79.2 50 50)" style="transform:matrix(0.187381, 0.982287, -0.982287, 0.187381, 89.7453, -8.48343);animation-play-state:paused" ><rect x="47" y="29" rx="3" ry="1" width="6" height="2" fill="#ffffff" opacity="0.23" style="opacity:0.23;animation-play-state:paused" ></rect></g>
<g transform="rotate(82.8 50 50)" style="transform:matrix(0.125333, 0.992115, -0.992115, 0.125333, 93.3391, -5.87239);animation-play-state:paused" ><rect x="47" y="29" rx="3" ry="1" width="6" height="2" fill="#ffffff" opacity="0.24" style="opacity:0.24;animation-play-state:paused" ></rect></g>
<g transform="rotate(86.4 50 50)" style="transform:matrix(0.0627905, 0.998027, -0.998027, 0.0627905, 96.7618, -3.04086);animation-play-state:paused" ><rect x="47" y="29" rx="3" ry="1" width="6" height="2" fill="#ffffff" opacity="0.25" style="opacity:0.25;animation-play-state:paused" ></rect></g>
<g transform="rotate(90 50 50)" style="transform:matrix(6.12323e-17, 1, -1, 6.12323e-17, 100, 0);animation-play-state:paused" ><rect x="47" y="29" rx="3" ry="1" width="6" height="2" fill="#ffffff" opacity="0.26" style="opacity:0.26;animation-play-state:paused" ></rect></g>
<g transform="rotate(93.6 50 50)" style="transform:matrix(-0.0627905, 0.998027, -0.998027, -0.0627905, 103.041, 3.23819);animation-play-state:paused" ><rect x="47" y="29" rx="3" ry="1" width="6" height="2" fill="#ffffff" opacity="0.27" style="opacity:0.27;animation-play-state:paused" ></rect></g>
<g transform="rotate(97.2 50 50)" style="transform:matrix(-0.125333, 0.992115, -0.992115, -0.125333, 105.872, 6.66092);animation-play-state:paused" ><rect x="47" y="29" rx="3" ry="1" width="6" height="2" fill="#ffffff" opacity="0.28" style="opacity:0.28;animation-play-state:paused" ></rect></g>
<g transform="rotate(100.8 50 50)" style="transform:matrix(-0.187381, 0.982287, -0.982287, -0.187381, 108.483, 10.2547);animation-play-state:paused" ><rect x="47" y="29" rx="3" ry="1" width="6" height="2" fill="#ffffff" opacity="0.29" style="opacity:0.29;animation-play-state:paused" ></rect></g>
<g transform="rotate(104.4 50 50)" style="transform:matrix(-0.24869, 0.968583, -0.968583, -0.24869, 110.864, 14.0053);animation-play-state:paused" ><rect x="47" y="29" rx="3" ry="1" width="6" height="2" fill="#ffffff" opacity="0.3" style="opacity:0.3;animation-play-state:paused" ></rect></g>
<g transform="rotate(108 50 50)" style="transform:matrix(-0.309017, 0.951057, -0.951057, -0.309017, 113.004, 17.898);animation-play-state:paused" ><rect x="47" y="29" rx="3" ry="1" width="6" height="2" fill="#ffffff" opacity="0.31" style="opacity:0.31;animation-play-state:paused" ></rect></g>
<g transform="rotate(111.6 50 50)" style="transform:matrix(-0.368125, 0.929776, -0.929776, -0.368125, 114.895, 21.9174);animation-play-state:paused" ><rect x="47" y="29" rx="3" ry="1" width="6" height="2" fill="#ffffff" opacity="0.32" style="opacity:0.32;animation-play-state:paused" ></rect></g>
<g transform="rotate(115.2 50 50)" style="transform:matrix(-0.425779, 0.904827, -0.904827, -0.425779, 116.53, 26.0476);animation-play-state:paused" ><rect x="47" y="29" rx="3" ry="1" width="6" height="2" fill="#ffffff" opacity="0.33" style="opacity:0.33;animation-play-state:paused" ></rect></g>
<g transform="rotate(118.8 50 50)" style="transform:matrix(-0.481754, 0.876307, -0.876307, -0.481754, 117.903, 30.2724);animation-play-state:paused" ><rect x="47" y="29" rx="3" ry="1" width="6" height="2" fill="#ffffff" opacity="0.34" style="opacity:0.34;animation-play-state:paused" ></rect></g>
<g transform="rotate(122.4 50 50)" style="transform:matrix(-0.535827, 0.844328, -0.844328, -0.535827, 119.008, 34.5749);animation-play-state:paused" ><rect x="47" y="29" rx="3" ry="1" width="6" height="2" fill="#ffffff" opacity="0.35" style="opacity:0.35;animation-play-state:paused" ></rect></g>
<g transform="rotate(126 50 50)" style="transform:matrix(-0.587785, 0.809017, -0.809017, -0.587785, 119.84, 38.9384);animation-play-state:paused" ><rect x="47" y="29" rx="3" ry="1" width="6" height="2" fill="#ffffff" opacity="0.36" style="opacity:0.36;animation-play-state:paused" ></rect></g>
<g transform="rotate(129.6 50 50)" style="transform:matrix(-0.637424, 0.770513, -0.770513, -0.637424, 120.397, 43.3455);animation-play-state:paused" ><rect x="47" y="29" rx="3" ry="1" width="6" height="2" fill="#ffffff" opacity="0.37" style="opacity:0.37;animation-play-state:paused" ></rect></g>
<g transform="rotate(133.2 50 50)" style="transform:matrix(-0.684547, 0.728969, -0.728969, -0.684547, 120.676, 47.7789);animation-play-state:paused" ><rect x="47" y="29" rx="3" ry="1" width="6" height="2" fill="#ffffff" opacity="0.38" style="opacity:0.38;animation-play-state:paused" ></rect></g>
<g transform="rotate(136.8 50 50)" style="transform:matrix(-0.728969, 0.684547, -0.684547, -0.728969, 120.676, 52.2211);animation-play-state:paused" ><rect x="47" y="29" rx="3" ry="1" width="6" height="2" fill="#ffffff" opacity="0.39" style="opacity:0.39;animation-play-state:paused" ></rect></g>
<g transform="rotate(140.4 50 50)" style="transform:matrix(-0.770513, 0.637424, -0.637424, -0.770513, 120.397, 56.6545);animation-play-state:paused" ><rect x="47" y="29" rx="3" ry="1" width="6" height="2" fill="#ffffff" opacity="0.4" style="opacity:0.4;animation-play-state:paused" ></rect></g>
<g transform="rotate(144 50 50)" style="transform:matrix(-0.809017, 0.587785, -0.587785, -0.809017, 119.84, 61.0616);animation-play-state:paused" ><rect x="47" y="29" rx="3" ry="1" width="6" height="2" fill="#ffffff" opacity="0.41" style="opacity:0.41;animation-play-state:paused" ></rect></g>
<g transform="rotate(147.6 50 50)" style="transform:matrix(-0.844328, 0.535827, -0.535827, -0.844328, 119.008, 65.4251);animation-play-state:paused" ><rect x="47" y="29" rx="3" ry="1" width="6" height="2" fill="#ffffff" opacity="0.42" style="opacity:0.42;animation-play-state:paused" ></rect></g>
<g transform="rotate(151.2 50 50)" style="transform:matrix(-0.876307, 0.481754, -0.481754, -0.876307, 117.903, 69.7276);animation-play-state:paused" ><rect x="47" y="29" rx="3" ry="1" width="6" height="2" fill="#ffffff" opacity="0.43" style="opacity:0.43;animation-play-state:paused" ></rect></g>
<g transform="rotate(154.8 50 50)" style="transform:matrix(-0.904827, 0.425779, -0.425779, -0.904827, 116.53, 73.9524);animation-play-state:paused" ><rect x="47" y="29" rx="3" ry="1" width="6" height="2" fill="#ffffff" opacity="0.44" style="opacity:0.44;animation-play-state:paused" ></rect></g>
<g transform="rotate(158.4 50 50)" style="transform:matrix(-0.929776, 0.368125, -0.368125, -0.929776, 114.895, 78.0826);animation-play-state:paused" ><rect x="47" y="29" rx="3" ry="1" width="6" height="2" fill="#ffffff" opacity="0.45" style="opacity:0.45;animation-play-state:paused" ></rect></g>
<g transform="rotate(162 50 50)" style="transform:matrix(-0.951057, 0.309017, -0.309017, -0.951057, 113.004, 82.102);animation-play-state:paused" ><rect x="47" y="29" rx="3" ry="1" width="6" height="2" fill="#ffffff" opacity="0.46" style="opacity:0.46;animation-play-state:paused" ></rect></g>
<g transform="rotate(165.6 50 50)" style="transform:matrix(-0.968583, 0.24869, -0.24869, -0.968583, 110.864, 85.9947);animation-play-state:paused" ><rect x="47" y="29" rx="3" ry="1" width="6" height="2" fill="#ffffff" opacity="0.47" style="opacity:0.47;animation-play-state:paused" ></rect></g>
<g transform="rotate(169.2 50 50)" style="transform:matrix(-0.982287, 0.187381, -0.187381, -0.982287, 108.483, 89.7453);animation-play-state:paused" ><rect x="47" y="29" rx="3" ry="1" width="6" height="2" fill="#ffffff" opacity="0.48" style="opacity:0.48;animation-play-state:paused" ></rect></g>
<g transform="rotate(172.8 50 50)" style="transform:matrix(-0.992115, 0.125333, -0.125333, -0.992115, 105.872, 93.3391);animation-play-state:paused" ><rect x="47" y="29" rx="3" ry="1" width="6" height="2" fill="#ffffff" opacity="0.49" style="opacity:0.49;animation-play-state:paused" ></rect></g>
<g transform="rotate(176.4 50 50)" style="transform:matrix(-0.998027, 0.0627906, -0.0627906, -0.998027, 103.041, 96.7618);animation-play-state:paused" ><rect x="47" y="29" rx="3" ry="1" width="6" height="2" fill="#ffffff" opacity="0.5" style="opacity:0.5;animation-play-state:paused" ></rect></g>
<g transform="rotate(180 50 50)" style="transform:matrix(-1, 1.22465e-16, -1.22465e-16, -1, 100, 100);animation-play-state:paused" ><rect x="47" y="29" rx="3" ry="1" width="6" height="2" fill="#ffffff" opacity="0.51" style="opacity:0.51;animation-play-state:paused" ></rect></g>
<g transform="rotate(183.6 50 50)" style="transform:matrix(-0.998027, -0.0627906, 0.0627906, -0.998027, 96.7618, 103.041);animation-play-state:paused" ><rect x="47" y="29" rx="3" ry="1" width="6" height="2" fill="#ffffff" opacity="0.52" style="opacity:0.52;animation-play-state:paused" ></rect></g>
<g transform="rotate(187.2 50 50)" style="transform:matrix(-0.992115, -0.125333, 0.125333, -0.992115, 93.3391, 105.872);animation-play-state:paused" ><rect x="47" y="29" rx="3" ry="1" width="6" height="2" fill="#ffffff" opacity="0.53" style="opacity:0.53;animation-play-state:paused" ></rect></g>
<g transform="rotate(190.8 50 50)" style="transform:matrix(-0.982287, -0.187381, 0.187381, -0.982287, 89.7453, 108.483);animation-play-state:paused" ><rect x="47" y="29" rx="3" ry="1" width="6" height="2" fill="#ffffff" opacity="0.54" style="opacity:0.54;animation-play-state:paused" ></rect></g>
<g transform="rotate(194.4 50 50)" style="transform:matrix(-0.968583, -0.24869, 0.24869, -0.968583, 85.9947, 110.864);animation-play-state:paused" ><rect x="47" y="29" rx="3" ry="1" width="6" height="2" fill="#ffffff" opacity="0.55" style="opacity:0.55;animation-play-state:paused" ></rect></g>
<g transform="rotate(198 50 50)" style="transform:matrix(-0.951057, -0.309017, 0.309017, -0.951057, 82.102, 113.004);animation-play-state:paused" ><rect x="47" y="29" rx="3" ry="1" width="6" height="2" fill="#ffffff" opacity="0.56" style="opacity:0.56;animation-play-state:paused" ></rect></g>
<g transform="rotate(201.6 50 50)" style="transform:matrix(-0.929776, -0.368125, 0.368125, -0.929776, 78.0826, 114.895);animation-play-state:paused" ><rect x="47" y="29" rx="3" ry="1" width="6" height="2" fill="#ffffff" opacity="0.57" style="opacity:0.57;animation-play-state:paused" ></rect></g>
<g transform="rotate(205.2 50 50)" style="transform:matrix(-0.904827, -0.425779, 0.425779, -0.904827, 73.9524, 116.53);animation-play-state:paused" ><rect x="47" y="29" rx="3" ry="1" width="6" height="2" fill="#ffffff" opacity="0.58" style="opacity:0.58;animation-play-state:paused" ></rect></g>
<g transform="rotate(208.8 50 50)" style="transform:matrix(-0.876307, -0.481754, 0.481754, -0.876307, 69.7276, 117.903);animation-play-state:paused" ><rect x="47" y="29" rx="3" ry="1" width="6" height="2" fill="#ffffff" opacity="0.59" style="opacity:0.59;animation-play-state:paused" ></rect></g>
<g transform="rotate(212.4 50 50)" style="transform:matrix(-0.844328, -0.535827, 0.535827, -0.844328, 65.4251, 119.008);animation-play-state:paused" ><rect x="47" y="29" rx="3" ry="1" width="6" height="2" fill="#ffffff" opacity="0.6" style="opacity:0.6;animation-play-state:paused" ></rect></g>
<g transform="rotate(216 50 50)" style="transform:matrix(-0.809017, -0.587785, 0.587785, -0.809017, 61.0616, 119.84);animation-play-state:paused" ><rect x="47" y="29" rx="3" ry="1" width="6" height="2" fill="#ffffff" opacity="0.61" style="opacity:0.61;animation-play-state:paused" ></rect></g>
<g transform="rotate(219.6 50 50)" style="transform:matrix(-0.770513, -0.637424, 0.637424, -0.770513, 56.6545, 120.397);animation-play-state:paused" ><rect x="47" y="29" rx="3" ry="1" width="6" height="2" fill="#ffffff" opacity="0.62" style="opacity:0.62;animation-play-state:paused" ></rect></g>
<g transform="rotate(223.2 50 50)" style="transform:matrix(-0.728969, -0.684547, 0.684547, -0.728969, 52.2211, 120.676);animation-play-state:paused" ><rect x="47" y="29" rx="3" ry="1" width="6" height="2" fill="#ffffff" opacity="0.63" style="opacity:0.63;animation-play-state:paused" ></rect></g>
<g transform="rotate(226.8 50 50)" style="transform:matrix(-0.684547, -0.728969, 0.728969, -0.684547, 47.7789, 120.676);animation-play-state:paused" ><rect x="47" y="29" rx="3" ry="1" width="6" height="2" fill="#ffffff" opacity="0.64" style="opacity:0.64;animation-play-state:paused" ></rect></g>
<g transform="rotate(230.4 50 50)" style="transform:matrix(-0.637424, -0.770513, 0.770513, -0.637424, 43.3455, 120.397);animation-play-state:paused" ><rect x="47" y="29" rx="3" ry="1" width="6" height="2" fill="#ffffff" opacity="0.65" style="opacity:0.65;animation-play-state:paused" ></rect></g>
<g transform="rotate(234 50 50)" style="transform:matrix(-0.587785, -0.809017, 0.809017, -0.587785, 38.9384, 119.84);animation-play-state:paused" ><rect x="47" y="29" rx="3" ry="1" width="6" height="2" fill="#ffffff" opacity="0.66" style="opacity:0.66;animation-play-state:paused" ></rect></g>
<g transform="rotate(237.6 50 50)" style="transform:matrix(-0.535827, -0.844328, 0.844328, -0.535827, 34.5749, 119.008);animation-play-state:paused" ><rect x="47" y="29" rx="3" ry="1" width="6" height="2" fill="#ffffff" opacity="0.67" style="opacity:0.67;animation-play-state:paused" ></rect></g>
<g transform="rotate(241.2 50 50)" style="transform:matrix(-0.481754, -0.876307, 0.876307, -0.481754, 30.2724, 117.903);animation-play-state:paused" ><rect x="47" y="29" rx="3" ry="1" width="6" height="2" fill="#ffffff" opacity="0.68" style="opacity:0.68;animation-play-state:paused" ></rect></g>
<g transform="rotate(244.8 50 50)" style="transform:matrix(-0.425779, -0.904827, 0.904827, -0.425779, 26.0476, 116.53);animation-play-state:paused" ><rect x="47" y="29" rx="3" ry="1" width="6" height="2" fill="#ffffff" opacity="0.69" style="opacity:0.69;animation-play-state:paused" ></rect></g>
<g transform="rotate(248.4 50 50)" style="transform:matrix(-0.368125, -0.929776, 0.929776, -0.368125, 21.9174, 114.895);animation-play-state:paused" ><rect x="47" y="29" rx="3" ry="1" width="6" height="2" fill="#ffffff" opacity="0.7" style="opacity:0.7;animation-play-state:paused" ></rect></g>
<g transform="rotate(252 50 50)" style="transform:matrix(-0.309017, -0.951057, 0.951057, -0.309017, 17.898, 113.004);animation-play-state:paused" ><rect x="47" y="29" rx="3" ry="1" width="6" height="2" fill="#ffffff" opacity="0.71" style="opacity:0.71;animation-play-state:paused" ></rect></g>
<g transform="rotate(255.6 50 50)" style="transform:matrix(-0.24869, -0.968583, 0.968583, -0.24869, 14.0053, 110.864);animation-play-state:paused" ><rect x="47" y="29" rx="3" ry="1" width="6" height="2" fill="#ffffff" opacity="0.72" style="opacity:0.72;animation-play-state:paused" ></rect></g>
<g transform="rotate(259.2 50 50)" style="transform:matrix(-0.187381, -0.982287, 0.982287, -0.187381, 10.2547, 108.483);animation-play-state:paused" ><rect x="47" y="29" rx="3" ry="1" width="6" height="2" fill="#ffffff" opacity="0.73" style="opacity:0.73;animation-play-state:paused" ></rect></g>
<g transform="rotate(262.8 50 50)" style="transform:matrix(-0.125333, -0.992115, 0.992115, -0.125333, 6.66094, 105.872);animation-play-state:paused" ><rect x="47" y="29" rx="3" ry="1" width="6" height="2" fill="#ffffff" opacity="0.74" style="opacity:0.74;animation-play-state:paused" ></rect></g>
<g transform="rotate(266.4 50 50)" style="transform:matrix(-0.0627906, -0.998027, 0.998027, -0.0627906, 3.2382, 103.041);animation-play-state:paused" ><rect x="47" y="29" rx="3" ry="1" width="6" height="2" fill="#ffffff" opacity="0.75" style="opacity:0.75;animation-play-state:paused" ></rect></g>
<g transform="rotate(270 50 50)" style="transform:matrix(-1.83697e-16, -1, 1, -1.83697e-16, 7.10543e-15, 100);animation-play-state:paused" ><rect x="47" y="29" rx="3" ry="1" width="6" height="2" fill="#ffffff" opacity="0.76" style="opacity:0.76;animation-play-state:paused" ></rect></g>
<g transform="rotate(273.6 50 50)" style="transform:matrix(0.0627906, -0.998027, 0.998027, 0.0627906, -3.04087, 96.7618);animation-play-state:paused" ><rect x="47" y="29" rx="3" ry="1" width="6" height="2" fill="#ffffff" opacity="0.77" style="opacity:0.77;animation-play-state:paused" ></rect></g>
<g transform="rotate(277.2 50 50)" style="transform:matrix(0.125333, -0.992115, 0.992115, 0.125333, -5.87241, 93.3391);animation-play-state:paused" ><rect x="47" y="29" rx="3" ry="1" width="6" height="2" fill="#ffffff" opacity="0.78" style="opacity:0.78;animation-play-state:paused" ></rect></g>
<g transform="rotate(280.8 50 50)" style="transform:matrix(0.187381, -0.982287, 0.982287, 0.187381, -8.48342, 89.7453);animation-play-state:paused" ><rect x="47" y="29" rx="3" ry="1" width="6" height="2" fill="#ffffff" opacity="0.79" style="opacity:0.79;animation-play-state:paused" ></rect></g>
<g transform="rotate(284.4 50 50)" style="transform:matrix(0.24869, -0.968583, 0.968583, 0.24869, -10.8636, 85.9947);animation-play-state:paused" ><rect x="47" y="29" rx="3" ry="1" width="6" height="2" fill="#ffffff" opacity="0.8" style="opacity:0.8;animation-play-state:paused" ></rect></g>
<g transform="rotate(288 50 50)" style="transform:matrix(0.309017, -0.951057, 0.951057, 0.309017, -13.0037, 82.102);animation-play-state:paused" ><rect x="47" y="29" rx="3" ry="1" width="6" height="2" fill="#ffffff" opacity="0.81" style="opacity:0.81;animation-play-state:paused" ></rect></g>
<g transform="rotate(291.6 50 50)" style="transform:matrix(0.368125, -0.929776, 0.929776, 0.368125, -14.8951, 78.0826);animation-play-state:paused" ><rect x="47" y="29" rx="3" ry="1" width="6" height="2" fill="#ffffff" opacity="0.82" style="opacity:0.82;animation-play-state:paused" ></rect></g>
<g transform="rotate(295.2 50 50)" style="transform:matrix(0.425779, -0.904827, 0.904827, 0.425779, -16.5303, 73.9524);animation-play-state:paused" ><rect x="47" y="29" rx="3" ry="1" width="6" height="2" fill="#ffffff" opacity="0.83" style="opacity:0.83;animation-play-state:paused" ></rect></g>
<g transform="rotate(298.8 50 50)" style="transform:matrix(0.481753, -0.876307, 0.876307, 0.481753, -17.903, 69.7277);animation-play-state:paused" ><rect x="47" y="29" rx="3" ry="1" width="6" height="2" fill="#ffffff" opacity="0.84" style="opacity:0.84;animation-play-state:paused" ></rect></g>
<g transform="rotate(302.4 50 50)" style="transform:matrix(0.535827, -0.844328, 0.844328, 0.535827, -19.0077, 65.4251);animation-play-state:paused" ><rect x="47" y="29" rx="3" ry="1" width="6" height="2" fill="#ffffff" opacity="0.85" style="opacity:0.85;animation-play-state:paused" ></rect></g>
<g transform="rotate(306 50 50)" style="transform:matrix(0.587785, -0.809017, 0.809017, 0.587785, -19.8401, 61.0616);animation-play-state:paused" ><rect x="47" y="29" rx="3" ry="1" width="6" height="2" fill="#ffffff" opacity="0.86" style="opacity:0.86;animation-play-state:paused" ></rect></g>
<g transform="rotate(309.6 50 50)" style="transform:matrix(0.637424, -0.770513, 0.770513, 0.637424, -20.3969, 56.6545);animation-play-state:paused" ><rect x="47" y="29" rx="3" ry="1" width="6" height="2" fill="#ffffff" opacity="0.87" style="opacity:0.87;animation-play-state:paused" ></rect></g>
<g transform="rotate(313.2 50 50)" style="transform:matrix(0.684547, -0.728968, 0.728968, 0.684547, -20.6758, 52.2211);animation-play-state:paused" ><rect x="47" y="29" rx="3" ry="1" width="6" height="2" fill="#ffffff" opacity="0.88" style="opacity:0.88;animation-play-state:paused" ></rect></g>
<g transform="rotate(316.8 50 50)" style="transform:matrix(0.728968, -0.684547, 0.684547, 0.728968, -20.6758, 47.7789);animation-play-state:paused" ><rect x="47" y="29" rx="3" ry="1" width="6" height="2" fill="#ffffff" opacity="0.89" style="opacity:0.89;animation-play-state:paused" ></rect></g>
<g transform="rotate(320.4 50 50)" style="transform:matrix(0.770513, -0.637424, 0.637424, 0.770513, -20.3969, 43.3455);animation-play-state:paused" ><rect x="47" y="29" rx="3" ry="1" width="6" height="2" fill="#ffffff" opacity="0.9" style="opacity:0.9;animation-play-state:paused" ></rect></g>
<g transform="rotate(324 50 50)" style="transform:matrix(0.809017, -0.587785, 0.587785, 0.809017, -19.8401, 38.9384);animation-play-state:paused" ><rect x="47" y="29" rx="3" ry="1" width="6" height="2" fill="#ffffff" opacity="0.91" style="opacity:0.91;animation-play-state:paused" ></rect></g>
<g transform="rotate(327.6 50 50)" style="transform:matrix(0.844328, -0.535827, 0.535827, 0.844328, -19.0077, 34.5749);animation-play-state:paused" ><rect x="47" y="29" rx="3" ry="1" width="6" height="2" fill="#ffffff" opacity="0.92" style="opacity:0.92;animation-play-state:paused" ></rect></g>
<g transform="rotate(331.2 50 50)" style="transform:matrix(0.876307, -0.481753, 0.481753, 0.876307, -17.903, 30.2723);animation-play-state:paused" ><rect x="47" y="29" rx="3" ry="1" width="6" height="2" fill="#ffffff" opacity="0.93" style="opacity:0.93;animation-play-state:paused" ></rect></g>
<g transform="rotate(334.8 50 50)" style="transform:matrix(0.904827, -0.425779, 0.425779, 0.904827, -16.5303, 26.0476);animation-play-state:paused" ><rect x="47" y="29" rx="3" ry="1" width="6" height="2" fill="#ffffff" opacity="0.94" style="opacity:0.94;animation-play-state:paused" ></rect></g>
<g transform="rotate(338.4 50 50)" style="transform:matrix(0.929776, -0.368125, 0.368125, 0.929776, -14.8951, 21.9174);animation-play-state:paused" ><rect x="47" y="29" rx="3" ry="1" width="6" height="2" fill="#ffffff" opacity="0.95" style="opacity:0.95;animation-play-state:paused" ></rect></g>
<g transform="rotate(342 50 50)" style="transform:matrix(0.951057, -0.309017, 0.309017, 0.951057, -13.0037, 17.898);animation-play-state:paused" ><rect x="47" y="29" rx="3" ry="1" width="6" height="2" fill="#ffffff" opacity="0.96" style="opacity:0.96;animation-play-state:paused" ></rect></g>
<g transform="rotate(345.6 50 50)" style="transform:matrix(0.968583, -0.24869, 0.24869, 0.968583, -10.8636, 14.0053);animation-play-state:paused" ><rect x="47" y="29" rx="3" ry="1" width="6" height="2" fill="#ffffff" opacity="0.97" style="opacity:0.97;animation-play-state:paused" ></rect></g>
<g transform="rotate(349.2 50 50)" style="transform:matrix(0.982287, -0.187381, 0.187381, 0.982287, -8.48342, 10.2547);animation-play-state:paused" ><rect x="47" y="29" rx="3" ry="1" width="6" height="2" fill="#ffffff" opacity="0.98" style="opacity:0.98;animation-play-state:paused" ></rect></g>
<g transform="rotate(352.8 50 50)" style="transform:matrix(0.992115, -0.125333, 0.125333, 0.992115, -5.87241, 6.66094);animation-play-state:paused" ><rect x="47" y="29" rx="3" ry="1" width="6" height="2" fill="#ffffff" opacity="0.99" style="opacity:0.99;animation-play-state:paused" ></rect></g>
<g transform="rotate(356.4 50 50)" style="transform:matrix(0.998027, -0.0627906, 0.0627906, 0.998027, -3.04087, 3.2382);animation-play-state:paused" ><rect x="47" y="29" rx="3" ry="1" width="6" height="2" fill="#ffffff" opacity="1" style="animation-play-state:paused" ></rect></g><!-- generated by https://loading.io/ --></svg>